<svg width="116" height="64" fill="none" xmlns="http://www.w3.org/2000/svg"><path d="M1.484 32.001c0-17.515 26.23-30.558 56.51-30.558 30.278 0 56.522 13.043 56.522 30.558 0 17.521-26.244 30.532-56.523 30.532-30.278 0-56.509-13.01-56.509-30.532z" fill="#fff"/><path fill-rule="evenodd" clip-rule="evenodd" d="M57.993 0C90.013 0 116 14.339 116 32.001 116 49.666 90.012 64 57.993 64 25.988 64 0 49.666 0 32.001 0 14.34 25.988 0 57.993 0zm0 2.886c-30.386 0-55.065 13.07-55.065 29.115 0 16.053 24.679 29.091 55.065 29.091 30.387 0 55.066-13.038 55.066-29.09 0-16.046-24.68-29.116-55.066-29.116zM47.806 35.075H36.391c.135 2.782 1.714 4.071 4.075 4.071 1.754 0 2.955-.978 3.265-1.963h3.738c-.958 3.367-3.738 4.925-7.165 4.925-4.858 0-7.88-3.31-7.88-8.038 0-4.58 3.198-8.068 7.88-8.068 5.262 0 7.799 4.374 7.502 9.073zm-7.61-6.189c-2.375 0-3.59 1.565-3.778 3.567h7.407c-.283-2.137-1.187-3.567-3.63-3.567zm57.035 6.189H85.816c.121 2.782 1.714 4.071 4.061 4.071 1.768 0 2.969-.978 3.28-1.963h3.737c-.958 3.367-3.738 4.925-7.165 4.925-4.871 0-7.88-3.31-7.88-8.038 0-4.58 3.198-8.068 7.88-8.068 5.262 0 7.799 4.374 7.502 9.073zm-7.623-6.189c-2.362 0-3.576 1.565-3.779 3.567h7.422c-.284-2.137-1.188-3.567-3.644-3.567zM12.454 41.693h4.237V32.59h9.148v9.102h4.237v-21.14H25.84v8.655h-9.148v-8.655h-4.237v21.14zm37.686 0h3.994v-8.264c0-3.103 1.107-4.374 3.4-4.374 1.97 0 2.861 1.241 2.861 3.752v8.886h3.98v-9.398c0-3.782-1.133-6.294-5.653-6.294-1.781 0-3.643.829-4.71 2.542h-.094v-2.128H50.14v15.278zm17.636 0h3.98v-8.274l5.883 8.274h4.952l-6.477-8.573 5.735-6.705h-4.75l-5.343 6.587v-12.45h-3.98v21.14zm31.79 0h3.98v-21.14h-3.98v21.14z" fill="#EC1B23"/></svg>