<svg xmlns="http://www.w3.org/2000/svg" xmlns:xlink="http://www.w3.org/1999/xlink" width="24" height="24"><defs><path id="right-a" d="M2.293.293a1 1 0 111.414 1.414l-2 2A1 1 0 01.293 2.293l2-2z"/><path id="right-c" d="M3.414 4h9.587a1 1 0 010 2H3.414l2.293 2.293a1 1 0 01-1.414 1.414l-4-4a1 1 0 010-1.414l4-4a1 1 0 111.414 1.414L3.414 4z"/></defs><g fill="none" fill-rule="evenodd" transform="matrix(-1 0 0 1 19 7)"><g transform="translate(3 1)"><mask id="right-b" fill="#fff"><use xlink:href="#right-a"/></mask><use fill="#D8D8D8" fill-rule="nonzero" xlink:href="#right-a"/><g fill="#FFA0A0" mask="url(#right-b)"><path d="M-8-8h24v24H-8z"/></g></g><mask id="right-d" fill="#fff"><use xlink:href="#right-c"/></mask><use fill="#000" fill-rule="nonzero" xlink:href="#right-c"/><g fill="#7600FF" mask="url(#right-d)"><path d="M-5-7h24v24H-5z"/></g></g></svg>